<?xml version="1.0" encoding="utf-8"?>
<!-- Generator: Adobe Illustrator 15.0.0, SVG Export Plug-In . SVG Version: 6.00 Build 0)  -->
<!DOCTYPE svg PUBLIC "-//W3C//DTD SVG 1.0//EN" "http://www.w3.org/TR/2001/REC-SVG-20010904/DTD/svg10.dtd">
<svg version="1.0" id="Layer_1" xmlns="http://www.w3.org/2000/svg" xmlns:xlink="http://www.w3.org/1999/xlink" x="0px" y="0px"
	 width="100px" height="100px" viewBox="0 0 100 100" enable-background="new 0 0 100 100" xml:space="preserve">
<g fill="rgb(255,255,255)">
	<path d="M31.161,38.928l-5.68,5.84v-16.48h16.48l-5.68,5.68l9.041,9.04l-5.2,5.04L31.161,38.928z M45.321,62.209l-9.041,8.88
		l5.68,5.681H25.48v-16.4l5.68,5.68l8.96-9.04L45.321,62.209z M54.201,43.008l9.04-9.04l-5.68-5.68h16.48v16.48l-5.681-5.68
		l-9.04,8.96L54.201,43.008z M74.042,60.369v16.4h-16.48l5.68-5.681l-9.04-8.88l5.12-5.2l9.04,9.04L74.042,60.369z"/>
</g>
</svg>
