<?xml version="1.0" encoding="utf-8"?>
<!-- Generator: Adobe Illustrator 14.0.0, SVG Export Plug-In . SVG Version: 6.00 Build 43363)  -->
<!DOCTYPE svg PUBLIC "-//W3C//DTD SVG 1.1//EN" "http://www.w3.org/Graphics/SVG/1.1/DTD/svg11.dtd">
<svg version="1.1" id="Layer_1" xmlns="http://www.w3.org/2000/svg" xmlns:xlink="http://www.w3.org/1999/xlink" x="0px" y="0px"
	 width="100px" height="100px" viewBox="0 0 100 100" enable-background="new 0 0 100 100" xml:space="preserve">
<path d="M38.561,50.208c0,3.602-2.72,6.48-6.32,6.48c-3.76,0-6.48-2.88-6.48-6.48c0-3.6,2.72-6.479,6.48-6.479
	C35.841,43.729,38.561,46.608,38.561,50.208z"/>
<path d="M56.562,50.208c0,3.602-2.881,6.48-6.48,6.48c-3.6,0-6.48-2.88-6.48-6.48c0-3.6,2.88-6.479,6.48-6.479
	C53.682,43.729,56.562,46.608,56.562,50.208z"/>
<path d="M74.4,50.208c0,3.602-2.799,6.48-6.479,6.48c-3.602,0-6.4-2.88-6.4-6.48c0-3.6,2.801-6.479,6.4-6.479
	C71.602,43.729,74.4,46.608,74.4,50.208z"/>
</svg>
